<svg xmlns="http://www.w3.org/2000/svg" width="1024" height="1024" viewBox="0 0 1024 1024" fill="none"><path d="M162.516 333.231C191.327 317.663 220.607 300.549 249.33 284.503L403.909 198.414L472.798 159.908C482.341 154.538 501.2 143.189 510.601 139C538.748 154.998 567.016 170.792 595.397 186.382L761.458 278.554L826.243 314.881C833.85 319.118 852.664 328.872 859 333.294C857.836 371.942 858.886 415.885 858.873 455.039L858.9 691.367C847.164 696.695 828.752 707.734 817.17 714.234L741.46 756.787L510.862 886C493.055 876.869 474.048 865.731 456.492 855.897L372.313 808.826L162.364 691.494C161.789 674.324 162.213 654.932 162.206 637.575L162.18 537.219L162.14 392.337C162.14 387.191 161.645 335.059 162.516 333.231Z" fill="url(#paint0_linear_2006_2)"></path><path d="M164.516 333.231C193.285 317.663 222.523 300.549 251.204 284.503L405.562 198.414L474.352 159.908C483.881 154.538 502.714 143.189 512.1 139C540.207 154.998 568.435 170.792 596.775 186.382L762.598 278.554L827.29 314.881C834.886 319.118 853.673 328.872 860 333.294C858.838 371.942 859.886 415.885 859.873 455.039L859.9 691.367C848.181 696.695 829.795 707.734 818.23 714.234L742.628 756.787L512.361 886C494.58 876.869 475.6 865.731 458.07 855.897L374.011 808.826L164.363 691.494C163.789 674.324 164.212 654.932 164.206 637.575L164.18 537.219L164.14 392.337C164.14 387.191 163.645 335.059 164.516 333.231Z" fill="#0064EC"></path><path d="M246.394 377.648C268.384 365.894 290.733 352.973 312.656 340.858L430.642 275.859L483.223 246.786C490.507 242.731 504.902 234.163 512.077 231C533.561 243.079 555.137 255.004 576.8 266.775L703.549 336.366L752.997 363.794C758.804 366.993 773.164 374.357 778 377.696C777.111 406.876 777.913 440.054 777.903 469.616L777.923 648.048C768.966 652.071 754.912 660.405 746.073 665.313L688.285 697.441L512.276 795C498.685 788.106 484.177 779.696 470.778 772.272L406.526 736.732L246.278 648.144C245.839 635.181 246.162 620.539 246.157 607.434L246.137 531.663L246.107 422.275C246.107 418.389 245.729 379.028 246.394 377.648Z" fill="#0079FC"></path><path d="M247.079 648L165 690.356L512 886V794.565L247.079 648Z" fill="#005FE7" stroke="#005FE7"></path><path d="M776.999 648L859 690.356L513 886V794.565L776.999 648Z" fill="#005FE6" stroke="#005FE6"></path><path d="M247.428 378L165 333.323L511.119 139.5V231L247.428 378Z" fill="#0097FF" stroke="#0097FF"></path><path d="M777.198 378L860 333.323L511.5 139V230.5L777.198 378Z" fill="#0097FF" stroke="#0097FF"></path><path d="M778.368 378.931L859.98 334.111L859.98 690.665L777.714 649.324L778.368 378.931Z" fill="#0068EE" stroke="#0068EE"></path><path d="M247.885 378.931L163.509 334.111L163.509 690.229L245.878 647.852L247.885 378.931Z" fill="#0063EB" stroke="#0063EB"></path><path d="M247.295 377.694C269.236 365.939 291.822 352.972 313.695 340.858L431.418 275.859L483.881 246.786C491.149 242.731 505.512 234.163 512.671 231C534.107 243.079 555.635 255.004 577.249 266.775L703.715 336.366L753.053 363.794C758.847 366.992 773.175 374.357 778 377.696C777.113 406.876 777.913 440.054 777.903 469.616L777.924 648.048C768.986 652.071 754.964 660.406 746.144 665.313L688.485 697.442L512.87 795C499.309 788.106 484.833 779.696 471.464 772.272L407.355 736.732L247.465 648.144C247.028 635.181 247.35 620.539 247.345 607.434L247.325 531.664L247.295 422.275C247.295 418.389 246.631 379.073 247.295 377.694Z" fill="url(#paint1_radial_2006_2)" fill-opacity="0.2"></path><path d="M247 648.135L512.5 795L778 648.803L512.5 548L247 648.135Z" fill="url(#paint2_linear_2006_2)" stroke="#0080FE"></path><path d="M735.48 282.601C721.763 305.554 706.095 336.774 693.021 361.194C662.439 418.378 632.339 475.817 602.713 533.504L542.576 650.847C533.005 669.515 519.81 692.877 511.628 711.41C485.82 688.514 459.859 660.118 434.594 636.23C430.158 632.041 412.803 613.928 409.627 611.788C381.077 581.323 349.575 552.46 320.504 522.365C308.78 510.228 295.164 496.136 282.457 485.345C298.655 492.824 327.894 502.583 345.407 508.957L470.499 554.253C493.135 532.711 516.278 507.994 538.382 485.61C591.627 431.616 644.565 377.327 697.203 322.741C709.953 309.857 723.141 294.856 735.48 282.601Z" fill="#0E203C"></path><defs>
<linearGradient id="paint0_linear_2006_2" x1="601.706" y1="773.91" x2="472.447" y2="148.351" gradientUnits="userSpaceOnUse">
<stop stop-color="#0075FC"></stop>
<stop offset="1" stop-color="#0099FF"></stop>
</linearGradient>
<radialGradient id="paint1_radial_2006_2" cx="0" cy="0" r="1" gradientUnits="userSpaceOnUse" gradientTransform="translate(512.594 795) rotate(-90) scale(564 564.323)">
<stop stop-color="#0075FC"></stop>
<stop offset="0.574894" stop-color="#017DFB"></stop>
<stop offset="1" stop-color="#006EF3"></stop>
</radialGradient>
<linearGradient id="paint2_linear_2006_2" x1="483" y1="548" x2="512.254" y2="712.265" gradientUnits="userSpaceOnUse">
<stop offset="0.346125" stop-color="#006DF2"></stop>
<stop offset="1" stop-color="#0085FF"></stop>
</linearGradient>
</defs><style>@media (prefers-color-scheme: light) { :root { filter: none; } }
@media (prefers-color-scheme: dark) { :root { filter: none; } }
</style></svg>